<svg id="svg" xmlns="http://www.w3.org/2000/svg" xmlns:xlink="http://www.w3.org/1999/xlink" width="400" height="217.687074829932" viewBox="0, 0, 400,217.687074829932"><g id="svgg"><path id="path0" d="M18.118 3.693 C 18.077 4.228,17.545 7.351,16.935 10.632 C 12.983 31.880,9.414 51.016,7.297 62.313 C 2.172 89.654,1.090 95.889,1.389 96.372 C 1.558 96.647,6.194 96.871,11.690 96.871 L 21.682 96.871 21.977 95.374 C 22.140 94.551,22.533 91.429,22.852 88.435 C 23.753 79.971,23.431 80.544,27.288 80.544 C 30.223 80.544,30.528 80.446,29.911 79.702 C 28.964 78.561,28.833 66.350,29.747 64.325 C 30.311 63.073,30.405 63.787,30.388 69.185 C 30.376 72.666,30.628 76.001,30.947 76.597 C 31.265 77.193,31.412 77.794,31.273 77.933 C 30.913 78.293,32.023 78.349,40.130 78.377 C 46.780 78.400,47.294 78.474,46.806 79.337 C 46.515 79.851,45.681 82.354,44.952 84.898 C 44.223 87.442,42.627 92.867,41.405 96.954 C 38.619 106.271,38.786 108.112,42.468 108.674 C 43.172 108.781,45.429 109.475,47.485 110.217 C 53.899 112.531,54.228 112.363,56.036 105.850 C 56.701 103.456,57.467 100.934,57.738 100.247 C 58.009 99.559,58.231 98.539,58.231 97.979 C 58.231 97.419,58.418 96.880,58.646 96.780 C 58.875 96.680,59.443 95.129,59.910 93.333 C 60.861 89.673,61.030 89.615,65.211 91.513 C 68.882 93.180,70.205 92.758,71.447 89.524 C 72.022 88.027,72.717 86.313,72.992 85.714 C 73.267 85.116,73.589 84.136,73.707 83.537 C 73.971 82.206,77.130 73.070,77.848 71.565 C 82.439 61.937,81.942 61.497,66.490 61.497 L 54.094 61.497 50.396 41.769 C 45.975 18.188,43.573 5.610,43.171 3.946 L 42.875 2.721 30.533 2.721 C 19.072 2.721,18.186 2.791,18.118 3.693 M85.752 3.204 C 85.588 3.469,85.446 24.457,85.436 49.843 L 85.418 96.000 86.593 97.116 C 87.240 97.729,87.602 97.931,87.398 97.565 C 87.114 97.054,89.038 96.864,95.623 96.749 L 104.218 96.599 104.396 71.020 L 104.574 45.442 107.037 56.054 C 108.767 63.512,109.613 68.527,109.882 72.925 C 110.445 82.115,110.086 81.798,120.009 81.893 C 123.605 81.927,126.888 82.165,127.304 82.422 C 127.743 82.694,127.932 82.683,127.755 82.397 C 127.323 81.699,135.151 81.721,135.638 82.420 C 135.913 82.814,136.040 82.805,136.046 82.390 C 136.056 81.698,143.525 81.671,144.626 82.360 C 145.000 82.594,145.306 82.581,145.306 82.330 C 145.306 82.080,147.077 81.832,149.242 81.778 C 154.570 81.646,154.667 81.484,154.454 73.088 C 154.244 64.810,154.762 65.261,145.391 65.200 L 137.696 65.150 137.555 34.072 L 137.415 2.993 128.163 2.993 L 118.912 2.993 118.730 28.571 L 118.549 54.150 116.440 44.354 C 115.280 38.966,113.326 29.782,112.099 23.946 C 110.871 18.109,109.342 10.946,108.701 8.027 L 107.536 2.721 96.793 2.721 C 90.885 2.721,85.916 2.938,85.752 3.204 M167.385 3.204 C 166.889 4.006,167.015 95.940,167.512 96.437 C 167.765 96.690,172.240 96.830,177.455 96.748 L 186.939 96.599 187.097 91.469 C 187.183 88.648,187.083 85.954,186.874 85.483 C 186.665 85.012,186.525 84.467,186.562 84.272 C 186.600 84.078,186.035 83.769,185.308 83.587 C 183.640 83.168,182.381 79.635,183.327 78.028 C 183.899 77.057,183.945 77.066,184.270 78.224 C 184.459 78.893,186.116 80.545,187.953 81.896 C 189.790 83.247,191.874 84.781,192.585 85.305 C 193.295 85.830,194.116 86.411,194.408 86.596 C 194.706 86.786,193.005 90.473,190.531 95.000 C 184.798 105.490,184.716 104.708,192.067 109.601 C 198.644 113.979,199.343 113.873,202.433 108.027 C 203.383 106.231,204.570 104.027,205.073 103.129 C 205.575 102.231,206.558 100.460,207.257 99.193 C 208.514 96.915,208.542 96.900,209.786 97.833 C 210.478 98.351,210.909 98.997,210.744 99.268 C 210.579 99.538,210.690 99.608,210.990 99.422 C 211.291 99.237,212.559 99.836,213.808 100.755 C 216.740 102.911,218.077 102.586,220.210 99.199 C 224.725 92.029,225.309 90.984,225.341 90.020 C 225.366 89.257,225.605 89.439,226.235 90.704 C 227.042 92.324,227.024 92.564,225.937 94.650 L 224.779 96.871 229.636 96.871 C 232.538 96.871,234.640 96.633,234.858 96.281 C 235.059 95.956,235.187 82.315,235.143 65.966 C 235.098 49.618,235.172 36.352,235.305 36.488 C 235.439 36.624,235.930 39.429,236.396 42.721 C 236.863 46.014,238.236 55.439,239.447 63.667 C 240.659 71.895,241.540 78.912,241.407 79.260 C 241.273 79.608,241.319 80.049,241.509 80.239 C 242.242 80.972,242.253 83.376,241.522 82.947 C 241.134 82.720,241.212 83.005,241.696 83.580 C 242.180 84.155,242.585 84.993,242.595 85.442 C 242.630 86.993,243.229 91.165,243.767 93.605 C 244.064 94.952,244.317 96.238,244.330 96.463 C 244.343 96.687,247.660 96.871,251.701 96.871 C 255.741 96.871,259.050 96.687,259.054 96.463 C 259.063 95.912,264.630 57.342,265.253 53.519 C 265.391 52.668,265.950 48.789,266.494 44.898 L 267.483 37.823 267.755 67.211 L 268.027 96.599 277.396 96.747 L 286.766 96.896 286.920 91.033 C 287.005 87.808,286.952 66.680,286.803 44.082 L 286.531 2.993 272.638 2.848 L 258.746 2.703 255.299 27.882 C 253.403 41.731,251.786 53.134,251.706 53.223 C 251.481 53.471,251.040 50.689,249.526 39.456 C 248.760 33.769,248.023 28.381,247.889 27.483 C 247.755 26.585,247.267 23.034,246.804 19.592 C 245.796 12.087,244.942 6.258,244.553 4.218 L 244.267 2.721 230.433 2.721 L 216.599 2.721 216.577 3.946 C 216.565 4.619,216.555 17.109,216.553 31.702 L 216.550 58.234 214.972 57.418 C 212.741 56.265,210.792 57.119,209.712 59.724 C 208.578 62.457,203.347 71.835,202.955 71.836 C 202.681 71.837,198.598 68.944,195.672 66.675 C 193.225 64.777,190.552 65.876,188.760 69.515 L 187.483 72.109 187.343 37.415 L 187.203 2.721 177.443 2.721 C 172.075 2.721,167.549 2.939,167.385 3.204 M316.722 3.401 C 316.436 18.362,316.773 96.038,317.126 96.391 C 317.589 96.854,360.711 97.158,361.167 96.701 C 361.281 96.588,361.410 93.212,361.454 89.200 C 361.501 84.904,361.778 81.582,362.128 81.120 C 362.582 80.520,362.556 80.435,362.016 80.759 C 361.480 81.082,361.341 80.677,361.436 79.069 C 361.642 75.566,361.937 75.646,348.811 75.646 L 336.871 75.646 336.871 67.222 L 336.871 58.798 347.891 58.651 L 358.912 58.503 359.061 49.051 C 359.248 37.217,360.395 38.279,347.498 38.355 L 336.871 38.418 336.871 31.192 L 336.871 23.967 348.680 23.820 L 360.488 23.673 360.381 13.690 C 360.321 8.199,360.136 3.485,359.968 3.214 C 359.460 2.392,316.737 2.578,316.722 3.401 M32.864 43.278 C 33.913 51.353,34.846 58.694,34.937 59.591 L 35.102 61.223 30.587 61.365 L 26.071 61.508 26.375 59.733 C 26.543 58.758,27.419 52.082,28.323 44.898 C 30.061 31.076,30.499 28.141,30.781 28.423 C 30.877 28.519,31.814 35.204,32.864 43.278 M217.392 63.636 C 217.794 64.287,216.770 64.932,216.046 64.484 C 215.437 64.108,215.836 63.129,216.599 63.129 C 216.863 63.129,217.220 63.357,217.392 63.636 M41.709 64.626 C 42.382 65.492,42.511 65.499,43.129 64.713 C 43.604 64.108,44.795 63.828,47.075 63.785 C 49.310 63.743,49.991 63.868,49.233 64.182 C 48.624 64.434,47.798 65.035,47.397 65.517 C 46.997 66.000,46.236 66.395,45.706 66.395 C 44.381 66.395,43.805 68.112,44.868 68.889 C 46.232 69.887,45.866 71.296,44.082 71.918 C 43.184 72.231,42.449 72.721,42.449 73.006 C 42.449 73.788,38.923 75.102,36.828 75.102 C 35.151 75.102,35.005 74.977,35.241 73.741 C 35.393 72.947,35.248 72.381,34.893 72.381 C 34.559 72.381,34.286 72.014,34.286 71.565 C 34.286 71.099,34.775 70.748,35.425 70.748 C 36.080 70.748,36.678 70.316,36.830 69.732 C 36.976 69.173,37.994 68.237,39.092 67.651 C 41.101 66.579,41.535 65.018,40.082 64.090 C 39.645 63.811,39.684 63.688,40.212 63.682 C 40.628 63.677,41.302 64.102,41.709 64.626 M58.231 64.109 C 58.231 64.348,57.943 64.832,57.591 65.184 C 57.100 65.675,57.179 66.077,57.929 66.906 C 59.073 68.170,58.669 69.823,57.281 69.559 C 56.704 69.450,56.258 68.787,56.154 67.887 C 56.033 66.834,55.672 66.395,54.930 66.395 C 53.676 66.395,53.592 67.353,54.666 69.423 C 55.603 71.229,55.345 71.837,53.640 71.837 C 51.880 71.837,50.800 73.200,51.701 74.286 C 52.559 75.320,51.194 75.466,50.177 74.449 C 49.669 73.941,49.379 73.941,48.871 74.449 C 47.640 75.680,44.495 75.296,45.296 74.014 C 45.670 73.415,46.377 72.925,46.867 72.925 C 48.061 72.925,49.177 71.505,48.785 70.483 C 48.612 70.030,48.095 69.660,47.636 69.660 C 46.711 69.660,46.596 69.195,47.263 68.145 C 47.871 67.186,49.524 67.914,49.524 69.142 C 49.524 70.517,50.372 70.915,51.741 70.183 L 52.891 69.567 51.705 68.304 C 50.216 66.719,50.975 64.762,53.080 64.762 C 53.818 64.762,54.422 64.517,54.422 64.218 C 54.422 63.918,55.279 63.673,56.327 63.673 C 57.374 63.673,58.231 63.869,58.231 64.109 M66.395 64.151 C 66.395 64.414,66.027 64.934,65.578 65.306 C 64.896 65.872,64.762 65.794,64.762 64.829 C 64.762 64.165,65.109 63.673,65.578 63.673 C 66.027 63.673,66.395 63.888,66.395 64.151 M37.007 65.561 C 37.007 66.047,36.688 66.238,36.194 66.048 C 35.746 65.877,35.516 65.517,35.682 65.249 C 36.156 64.481,37.007 64.681,37.007 65.561 M62.041 65.818 C 62.041 67.008,61.191 67.765,60.716 66.997 C 60.318 66.353,60.916 64.762,61.555 64.762 C 61.822 64.762,62.041 65.237,62.041 65.818 M72.086 65.813 C 72.258 66.091,72.172 66.460,71.895 66.631 C 71.251 67.028,69.660 66.431,69.660 65.792 C 69.660 65.148,71.685 65.165,72.086 65.813 M213.878 66.122 C 213.878 66.571,213.510 66.939,213.061 66.939 C 212.612 66.939,212.245 66.571,212.245 66.122 C 212.245 65.673,212.612 65.306,213.061 65.306 C 213.510 65.306,213.878 65.673,213.878 66.122 M226.588 66.657 C 226.989 67.704,225.771 71.121,223.992 73.941 C 223.218 75.166,222.585 76.313,222.585 76.488 C 222.585 76.664,221.973 77.610,221.224 78.591 C 220.476 79.572,219.864 80.620,219.864 80.919 C 219.864 82.070,217.884 83.342,217.261 82.592 C 216.831 82.073,217.164 81.042,218.542 78.632 C 219.566 76.840,220.884 74.383,221.471 73.171 C 222.058 71.960,223.039 70.392,223.650 69.687 C 224.262 68.982,224.762 67.993,224.762 67.490 C 224.762 65.840,226.049 65.253,226.588 66.657 M33.617 67.041 C 33.280 68.050,32.109 68.217,32.109 67.256 C 32.109 66.782,32.497 66.395,32.971 66.395 C 33.444 66.395,33.735 66.685,33.617 67.041 M68.329 67.530 C 68.953 68.540,67.647 69.385,66.690 68.591 C 66.228 68.207,65.850 67.679,65.850 67.416 C 65.850 66.732,67.893 66.826,68.329 67.530 M118.844 67.670 C 120.893 66.838,122.682 67.115,122.910 68.299 C 123.025 68.898,123.311 69.510,123.546 69.660 C 124.814 70.468,124.281 72.037,122.585 72.487 C 121.612 72.745,120.816 73.207,120.816 73.513 C 120.816 73.819,120.020 74.402,119.048 74.810 C 116.713 75.787,116.349 76.214,117.089 77.106 C 117.980 78.180,117.149 78.718,115.851 77.907 C 115.016 77.386,114.561 77.369,113.995 77.839 C 113.582 78.181,112.989 78.303,112.677 78.110 C 111.827 77.584,111.992 75.807,112.925 75.449 C 113.374 75.277,113.741 74.735,113.741 74.245 C 113.741 73.676,113.446 73.466,112.925 73.666 C 111.764 74.112,111.868 72.212,113.061 71.187 C 113.585 70.738,114.470 70.207,115.028 70.008 C 115.755 69.749,115.970 69.269,115.788 68.316 C 115.562 67.134,115.654 67.050,116.611 67.563 C 117.267 67.914,118.141 67.956,118.844 67.670 M141.389 67.968 C 141.577 68.539,141.292 68.638,140.229 68.371 C 137.982 67.807,137.077 70.788,139.127 72.000 C 140.292 72.688,139.986 73.469,138.552 73.469 C 137.762 73.469,136.693 74.119,135.866 75.102 C 135.110 76.000,134.170 76.742,133.777 76.752 C 133.383 76.762,132.597 77.121,132.029 77.551 C 131.461 77.981,130.787 78.203,130.532 78.046 C 129.582 77.459,130.116 76.146,131.565 75.507 C 132.388 75.144,133.370 74.431,133.746 73.923 C 134.123 73.415,134.978 72.922,135.645 72.826 C 137.072 72.623,137.689 70.748,136.330 70.748 C 134.834 70.748,135.486 67.860,137.007 67.752 C 137.680 67.704,138.404 67.491,138.617 67.279 C 139.229 66.667,141.114 67.136,141.389 67.968 M127.030 68.358 C 128.088 68.764,128.143 69.861,127.147 70.688 C 126.190 71.483,124.996 70.202,125.491 68.913 C 125.877 67.907,125.866 67.911,127.030 68.358 M146.939 68.844 C 146.939 69.293,146.571 69.660,146.122 69.660 C 145.673 69.660,145.306 69.293,145.306 68.844 C 145.306 68.395,145.673 68.027,146.122 68.027 C 146.571 68.027,146.939 68.395,146.939 68.844 M64.907 70.276 C 64.234 70.950,62.585 70.553,62.585 69.717 C 62.585 69.017,64.359 68.645,65.007 69.210 C 65.329 69.490,65.292 69.892,64.907 70.276 M73.800 69.432 C 73.618 69.906,73.469 70.548,73.469 70.859 C 73.469 71.200,73.142 71.154,72.646 70.743 C 72.020 70.223,71.971 69.882,72.441 69.316 C 73.286 68.297,74.205 68.376,73.800 69.432 M119.216 70.143 C 118.494 71.493,120.099 72.244,121.249 71.094 C 121.930 70.412,121.885 70.232,120.903 69.706 C 119.972 69.208,119.675 69.285,119.216 70.143 M215.747 69.603 C 215.913 69.871,215.647 70.244,215.157 70.432 C 214.098 70.839,213.628 70.503,214.127 69.696 C 214.565 68.988,215.340 68.944,215.747 69.603 M40.544 70.204 C 40.359 70.503,40.712 70.748,41.328 70.748 C 41.945 70.748,42.449 70.503,42.449 70.204 C 42.449 69.905,42.096 69.660,41.665 69.660 C 41.233 69.660,40.729 69.905,40.544 70.204 M142.585 70.731 C 142.585 71.439,142.320 71.701,141.803 71.503 C 141.373 71.337,141.154 70.855,141.317 70.431 C 141.753 69.296,142.585 69.493,142.585 70.731 M70.106 71.386 C 69.886 72.882,68.571 73.384,68.571 71.973 C 68.571 70.843,69.011 70.204,69.788 70.204 C 70.059 70.204,70.202 70.736,70.106 71.386 M133.710 71.693 C 132.916 72.488,131.701 72.250,131.701 71.300 C 131.701 70.754,133.386 70.281,134.066 70.636 C 134.319 70.769,134.159 71.244,133.710 71.693 M60.680 72.109 C 60.680 72.658,60.374 73.209,60.000 73.333 C 59.569 73.477,59.320 73.028,59.320 72.109 C 59.320 71.190,59.569 70.741,60.000 70.884 C 60.374 71.009,60.680 71.560,60.680 72.109 M37.007 72.109 C 37.007 72.558,37.252 72.925,37.551 72.925 C 37.850 72.925,38.095 72.558,38.095 72.109 C 38.095 71.660,37.850 71.293,37.551 71.293 C 37.252 71.293,37.007 71.660,37.007 72.109 M149.932 74.777 L 149.932 77.989 147.613 78.206 C 145.749 78.381,145.225 78.231,144.945 77.443 C 144.753 76.904,144.221 76.026,143.763 75.493 C 143.014 74.622,143.016 74.438,143.778 73.675 C 144.547 72.907,144.697 72.985,145.372 74.509 C 145.796 75.467,146.527 76.190,147.072 76.190 C 148.180 76.190,148.286 75.502,147.397 74.078 C 146.499 72.640,147.210 71.178,148.705 71.390 C 149.820 71.549,149.932 71.858,149.932 74.777 M211.729 72.109 C 211.687 72.917,210.469 72.768,210.187 71.921 C 210.034 71.463,210.283 71.259,210.850 71.377 C 211.350 71.480,211.745 71.810,211.729 72.109 M115.374 72.925 C 115.374 73.224,115.878 73.469,116.495 73.469 C 117.111 73.469,117.464 73.224,117.279 72.925 C 117.094 72.626,116.590 72.381,116.158 72.381 C 115.727 72.381,115.374 72.626,115.374 72.925 M198.408 74.971 C 197.855 75.523,196.855 74.156,197.293 73.447 C 197.593 72.961,197.840 73.032,198.220 73.712 C 198.506 74.222,198.590 74.788,198.408 74.971 M56.599 74.286 C 56.599 74.735,56.231 75.102,55.782 75.102 C 54.932 75.102,54.703 74.458,55.329 73.832 C 55.955 73.206,56.599 73.436,56.599 74.286 M66.939 73.981 C 66.939 74.716,65.947 75.226,65.297 74.824 C 64.993 74.636,64.885 74.255,65.057 73.976 C 65.466 73.315,66.939 73.319,66.939 73.981 M208.435 74.286 C 208.435 74.735,208.068 75.102,207.619 75.102 C 207.170 75.102,206.803 74.735,206.803 74.286 C 206.803 73.837,207.170 73.469,207.619 73.469 C 208.068 73.469,208.435 73.837,208.435 74.286 M189.263 74.660 C 188.927 75.669,187.755 75.836,187.755 74.875 C 187.755 74.401,188.143 74.014,188.617 74.014 C 189.091 74.014,189.382 74.304,189.263 74.660 M63.129 75.374 C 63.129 76.239,61.218 76.516,60.727 75.722 C 60.325 75.072,60.945 74.558,62.132 74.558 C 62.680 74.558,63.129 74.925,63.129 75.374 M71.447 75.658 C 71.221 76.522,70.999 76.624,70.410 76.135 C 69.352 75.257,69.479 74.558,70.697 74.558 C 71.471 74.558,71.662 74.838,71.447 75.658 M125.610 75.143 C 125.503 75.465,125.182 75.728,124.898 75.728 C 124.614 75.728,124.293 75.465,124.186 75.143 C 124.079 74.821,124.399 74.558,124.898 74.558 C 125.397 74.558,125.717 74.821,125.610 75.143 M213.741 75.964 C 213.223 76.482,212.183 75.642,212.570 75.017 C 212.799 74.645,213.104 74.655,213.495 75.046 C 213.815 75.366,213.926 75.779,213.741 75.964 M69.071 78.394 C 69.827 81.923,69.814 82.202,68.904 81.853 C 68.479 81.689,68.264 81.118,68.413 80.547 C 68.581 79.905,68.259 79.270,67.537 78.819 C 66.244 78.011,66.096 77.251,67.048 76.299 C 68.141 75.206,68.457 75.534,69.071 78.394 M121.900 76.720 C 122.531 77.119,122.567 77.379,122.059 77.886 C 121.552 78.394,121.221 78.385,120.573 77.847 C 119.165 76.678,120.303 75.711,121.900 76.720 M141.497 77.007 C 141.497 77.923,141.397 77.960,140.181 77.493 C 138.965 77.026,139.111 76.190,140.408 76.190 C 141.013 76.190,141.497 76.553,141.497 77.007 M194.726 76.776 C 194.618 77.097,194.298 77.361,194.014 77.361 C 193.729 77.361,193.409 77.097,193.302 76.776 C 193.194 76.454,193.515 76.190,194.014 76.190 C 194.512 76.190,194.833 76.454,194.726 76.776 M210.612 77.551 C 210.612 78.000,210.245 78.367,209.796 78.367 C 208.946 78.367,208.716 77.724,209.342 77.098 C 209.969 76.471,210.612 76.701,210.612 77.551 M191.565 78.095 C 191.565 78.544,191.083 78.912,190.493 78.912 C 189.765 78.912,189.522 78.650,189.735 78.095 C 189.907 77.646,190.390 77.279,190.807 77.279 C 191.223 77.279,191.565 77.646,191.565 78.095 M200.692 77.925 C 200.355 78.934,199.184 79.102,199.184 78.141 C 199.184 77.667,199.571 77.279,200.045 77.279 C 200.519 77.279,200.810 77.570,200.692 77.925 M363.899 77.698 C 363.772 77.917,363.669 79.932,363.673 82.177 C 363.676 84.422,363.540 86.932,363.372 87.755 C 363.203 88.578,363.233 89.252,363.437 89.252 C 363.910 89.252,363.786 97.950,363.291 99.510 C 363.087 100.154,362.534 100.680,362.063 100.680 C 361.338 100.680,361.259 101.196,361.555 104.025 C 361.747 105.865,361.905 108.682,361.905 110.284 L 361.905 113.197 371.508 113.197 L 381.110 113.197 380.780 105.170 C 380.187 90.760,376.753 83.503,368.639 79.511 C 367.180 78.793,365.569 78.002,365.059 77.754 C 364.549 77.505,364.027 77.480,363.899 77.698 M137.687 78.367 C 137.687 79.049,137.110 79.049,136.054 78.367 C 135.394 77.941,135.472 77.838,136.463 77.831 C 137.136 77.827,137.687 78.068,137.687 78.367 M237.448 88.027 C 237.404 98.565,236.938 101.477,235.392 100.884 C 234.460 100.526,234.112 105.783,235.030 106.350 C 235.407 106.583,248.578 106.845,252.653 106.700 C 253.429 106.673,253.605 106.161,253.605 103.946 L 253.605 101.224 250.068 101.170 C 243.916 101.075,243.553 101.030,242.782 100.266 C 241.922 99.416,241.373 96.274,241.366 92.161 C 241.363 90.618,241.204 89.453,241.012 89.571 C 240.637 89.803,240.294 88.149,239.649 82.993 C 239.424 81.197,239.196 79.544,239.144 79.320 C 239.091 79.095,239.017 78.667,238.980 78.367 C 238.942 78.068,238.592 77.823,238.201 77.823 C 237.643 77.823,237.481 80.015,237.448 88.027 M57.538 79.048 C 57.279 79.781,56.808 79.774,53.878 78.989 C 52.019 78.491,52.043 78.477,54.875 78.423 C 56.980 78.383,57.712 78.554,57.538 79.048 M77.571 79.243 C 77.238 79.575,76.485 81.351,75.898 83.189 C 75.274 85.140,74.519 86.531,74.083 86.531 C 73.502 86.531,73.477 86.701,73.973 87.298 C 74.409 87.823,74.430 88.178,74.040 88.419 C 73.726 88.613,73.469 89.262,73.469 89.860 C 73.469 90.544,73.236 90.804,72.841 90.560 C 72.448 90.317,72.361 90.411,72.608 90.812 C 73.503 92.260,71.138 95.753,69.252 95.768 C 68.279 95.776,67.483 96.017,67.483 96.304 C 67.483 96.590,66.503 103.855,65.306 112.448 C 64.109 121.041,63.108 128.337,63.082 128.662 C 62.946 130.381,62.043 125.279,60.663 114.997 C 59.048 102.967,58.765 102.174,57.687 106.667 C 57.328 108.165,56.809 109.530,56.535 109.699 C 56.261 109.869,56.165 110.215,56.322 110.468 C 56.957 111.497,55.437 113.828,53.639 114.579 C 51.887 115.311,50.068 115.191,50.068 114.343 C 50.068 114.140,49.328 113.917,48.423 113.848 C 46.969 113.737,46.810 113.866,47.057 114.956 C 47.287 115.973,52.039 148.600,54.668 167.217 C 55.038 169.839,55.492 172.136,55.677 172.321 C 56.039 172.683,69.583 172.775,69.941 172.418 C 70.203 172.155,71.379 164.424,75.628 135.026 C 77.418 122.637,79.019 112.364,79.186 112.197 C 79.352 112.031,79.467 120.820,79.440 131.730 C 79.414 142.639,79.426 152.422,79.467 153.469 L 79.542 155.374 80.372 153.027 C 81.765 149.088,81.626 150.690,79.941 157.989 C 78.107 165.931,78.337 167.582,81.366 168.230 C 82.970 168.574,82.965 168.580,81.019 168.643 C 78.323 168.731,77.978 169.313,76.152 176.852 C 74.216 184.841,74.191 185.755,75.873 187.078 L 77.189 188.113 75.400 188.760 C 73.923 189.294,73.553 189.762,73.284 191.438 C 73.104 192.555,72.570 195.061,72.097 197.007 C 69.435 207.949,68.631 207.337,90.340 210.889 C 98.164 212.170,100.915 212.688,101.862 213.060 C 104.113 213.944,105.620 211.160,107.017 203.537 C 107.155 202.789,107.635 200.742,108.086 198.988 C 108.964 195.565,108.343 193.838,106.174 193.677 C 105.697 193.642,106.041 193.457,106.939 193.266 C 108.715 192.888,110.341 189.389,110.433 185.746 C 110.457 184.791,110.684 183.882,110.937 183.725 C 111.191 183.568,111.419 182.712,111.444 181.822 C 111.469 180.932,111.752 179.715,112.071 179.117 C 112.952 177.471,112.773 175.902,111.565 174.694 C 110.686 173.815,110.639 173.605,111.320 173.605 C 112.230 173.605,113.395 171.224,113.983 168.163 C 114.184 167.116,114.550 165.769,114.795 165.170 C 115.387 163.723,116.463 157.850,116.463 156.064 C 116.463 154.413,115.100 153.816,109.388 152.960 C 107.442 152.668,104.871 152.283,103.673 152.104 C 102.476 151.925,100.701 151.658,99.728 151.511 L 97.959 151.243 97.959 126.234 L 97.959 101.224 95.102 101.187 C 82.244 101.020,83.187 101.929,83.272 89.796 C 83.307 84.857,83.319 80.263,83.300 79.588 C 83.262 78.225,78.856 77.960,77.571 79.243 M158.776 78.804 C 157.952 78.903,157.272 79.151,157.263 79.356 C 157.255 79.560,157.213 94.941,157.172 113.535 C 157.076 156.055,156.997 156.735,152.109 156.735 C 147.453 156.735,146.992 154.362,146.962 130.203 L 146.939 111.019 144.354 111.086 C 142.932 111.123,139.351 111.112,136.397 111.062 C 133.442 111.012,130.907 111.089,130.762 111.233 C 130.618 111.377,129.954 111.287,129.286 111.034 C 126.659 110.035,126.653 110.090,126.966 130.957 C 127.295 152.958,128.562 161.821,131.656 163.790 C 131.908 163.951,131.731 167.442,131.264 171.548 C 130.110 181.689,129.650 181.224,140.823 181.224 C 147.638 181.224,149.179 181.363,148.952 181.955 C 148.797 182.358,148.506 184.011,148.303 185.629 L 147.935 188.571 138.775 188.571 C 127.870 188.571,129.125 187.602,127.853 197.011 C 126.184 209.359,124.688 208.475,147.020 208.332 C 167.291 208.201,166.153 208.513,166.736 202.936 C 166.936 201.022,167.374 197.671,167.710 195.490 C 168.443 190.719,167.881 188.844,165.718 188.844 C 164.464 188.844,164.366 188.685,164.646 187.098 C 164.815 186.137,165.180 183.627,165.457 181.519 C 165.734 179.412,166.062 177.197,166.187 176.599 C 166.312 176.000,166.570 173.918,166.762 171.973 C 167.217 167.342,167.340 166.629,167.747 166.221 C 167.935 166.033,167.941 165.496,167.761 165.028 C 167.545 164.465,167.651 164.309,168.071 164.569 C 168.421 164.785,168.707 165.965,168.707 167.192 L 168.707 169.421 170.086 167.840 C 176.592 160.379,177.082 155.947,176.890 106.259 L 176.871 101.224 172.220 101.224 C 168.008 101.224,167.444 101.099,166.234 99.889 C 164.837 98.491,164.406 95.788,165.578 95.774 C 166.110 95.767,166.113 95.673,165.593 95.343 C 164.797 94.837,164.821 82.721,165.619 82.721 C 165.894 82.721,165.825 82.365,165.464 81.931 C 165.103 81.496,164.967 80.639,165.162 80.026 C 165.393 79.298,165.267 78.892,164.799 78.855 C 162.419 78.666,160.080 78.646,158.776 78.804 M206.071 80.369 C 205.342 81.098,204.603 79.867,205.280 79.050 C 205.916 78.282,206.005 78.291,206.171 79.142 C 206.272 79.661,206.227 80.213,206.071 80.369 M288.980 88.722 C 288.980 100.435,288.737 101.224,285.139 101.224 L 282.993 101.224 282.993 136.871 L 282.993 172.517 284.599 172.517 C 285.554 172.517,286.429 172.131,286.759 171.565 C 287.598 170.124,287.497 172.122,286.312 180.407 C 284.740 191.398,284.203 191.006,300.597 190.859 C 307.378 190.798,312.925 190.932,312.925 191.156 C 312.925 191.381,310.004 191.565,306.433 191.565 C 298.337 191.565,298.716 191.190,297.482 200.416 C 295.971 211.708,295.180 211.156,312.898 211.156 C 328.059 211.156,327.231 211.519,327.846 204.612 C 328.186 200.789,328.634 197.414,329.832 189.660 C 330.109 187.864,330.466 185.048,330.626 183.401 C 330.785 181.755,331.168 178.978,331.477 177.231 C 332.632 170.692,331.937 170.211,321.810 170.536 C 316.803 170.697,316.248 170.618,316.010 169.711 C 315.775 168.809,315.112 168.707,309.439 168.707 L 303.129 168.707 303.129 124.114 C 303.129 91.346,302.965 79.418,302.509 79.137 C 302.169 78.926,298.985 78.728,295.435 78.697 L 288.980 78.639 288.980 88.722 M64.959 79.728 C 64.631 80.581,63.129 80.879,63.129 80.091 C 63.129 79.426,63.755 78.912,64.563 78.912 C 64.970 78.912,65.138 79.260,64.959 79.728 M43.666 81.088 C 43.822 81.974,42.377 82.093,40.591 81.342 C 39.854 81.032,39.664 81.090,39.943 81.540 C 40.193 81.944,39.943 82.177,39.261 82.177 C 37.892 82.177,37.642 82.968,38.147 85.700 C 38.387 86.998,38.339 87.968,38.029 88.080 C 37.705 88.197,37.720 88.527,38.069 88.948 C 38.379 89.322,38.768 90.951,38.933 92.569 C 39.627 99.366,40.948 97.346,44.859 83.509 C 45.036 82.885,44.810 81.924,44.348 81.332 C 43.778 80.601,43.566 80.525,43.666 81.088 M60.952 81.582 C 60.952 82.355,60.672 82.546,59.852 82.332 C 58.988 82.106,58.886 81.883,59.375 81.294 C 60.253 80.236,60.952 80.363,60.952 81.582 M51.390 81.571 C 51.554 81.836,51.346 82.338,50.927 82.686 C 50.079 83.390,49.210 82.581,49.796 81.633 C 50.212 80.959,50.993 80.929,51.390 81.571 M66.882 82.380 C 67.783 83.467,67.026 84.898,65.548 84.898 C 64.369 84.898,64.317 84.776,64.843 83.265 C 65.471 81.464,65.949 81.256,66.882 82.380 M202.993 82.177 C 202.993 82.476,202.626 82.721,202.177 82.721 C 201.728 82.721,201.361 82.476,201.361 82.177 C 201.361 81.878,201.728 81.633,202.177 81.633 C 202.626 81.633,202.993 81.878,202.993 82.177 M57.417 83.269 C 57.604 83.571,57.363 83.968,56.882 84.153 C 55.840 84.553,55.259 84.112,55.760 83.302 C 56.212 82.570,56.976 82.555,57.417 83.269 M199.184 83.537 C 199.184 83.986,198.786 84.354,198.301 84.354 C 197.578 84.354,197.540 84.206,198.095 83.537 C 198.468 83.088,198.865 82.721,198.978 82.721 C 199.091 82.721,199.184 83.088,199.184 83.537 M208.435 83.537 C 208.435 83.986,208.190 84.354,207.891 84.354 C 207.592 84.354,207.347 83.986,207.347 83.537 C 207.347 83.088,207.592 82.721,207.891 82.721 C 208.190 82.721,208.435 83.088,208.435 83.537 M63.285 85.993 C 63.064 86.838,62.805 86.940,61.986 86.501 C 61.133 86.045,61.072 85.780,61.616 84.909 C 62.426 83.611,63.693 84.434,63.285 85.993 M29.932 84.738 C 29.932 85.072,29.448 85.214,28.844 85.056 C 27.762 84.773,27.755 85.039,27.755 128.644 L 27.755 172.517 30.612 172.561 C 35.923 172.644,45.948 172.465,46.128 172.284 C 46.952 171.461,46.441 113.197,45.610 113.197 C 45.104 113.197,44.539 112.952,44.354 112.653 C 44.169 112.354,43.412 112.109,42.672 112.109 C 41.932 112.109,41.186 111.743,41.014 111.296 C 40.843 110.848,40.516 110.598,40.288 110.739 C 39.132 111.453,37.417 107.630,38.277 106.259 C 38.512 105.884,38.573 105.578,38.413 105.578 C 38.253 105.578,38.375 104.914,38.683 104.103 C 39.305 102.468,38.898 99.912,38.095 100.408 C 37.498 100.777,37.205 99.565,36.713 94.694 C 36.516 92.748,36.257 90.185,36.136 88.998 C 35.736 85.059,35.497 84.738,33.191 85.048 C 32.035 85.202,30.858 85.062,30.527 84.731 C 30.097 84.301,29.932 84.303,29.932 84.738 M53.671 86.283 C 53.385 87.029,53.170 87.073,52.504 86.520 C 51.870 85.994,51.830 85.670,52.324 85.075 C 53.138 84.094,54.159 85.011,53.671 86.283 M214.422 85.501 C 214.422 86.439,214.184 86.589,213.123 86.323 C 212.127 86.073,211.759 86.249,211.542 87.080 C 211.208 88.357,208.980 88.589,208.980 87.347 C 208.980 86.898,209.247 86.531,209.574 86.531 C 209.901 86.531,210.791 86.041,211.552 85.442 C 213.340 84.036,214.422 84.058,214.422 85.501 M113.488 85.333 C 113.398 85.423,113.535 86.403,113.792 87.510 C 114.538 90.721,114.461 90.884,112.213 90.884 C 108.428 90.884,108.178 91.409,108.387 98.921 C 108.604 106.726,108.993 107.440,113.081 107.556 C 131.043 108.064,154.351 107.637,155.202 106.785 C 156.213 105.774,156.180 93.000,155.164 91.775 C 154.610 91.108,153.484 90.884,150.682 90.884 L 146.939 90.884 146.939 88.163 C 146.939 85.188,147.317 85.444,142.691 85.294 C 140.093 85.210,139.426 85.729,139.582 87.715 C 139.759 89.958,139.427 90.884,138.445 90.884 C 137.893 90.884,137.687 90.107,137.687 88.027 L 137.687 85.170 125.670 85.170 C 119.060 85.170,113.578 85.244,113.488 85.333 M339.320 101.224 L 332.245 101.497 331.604 106.667 C 330.984 111.661,330.951 144.206,331.562 146.667 C 331.711 147.265,332.000 148.980,332.205 150.476 C 334.001 163.629,340.991 173.061,348.940 173.061 C 350.262 173.061,350.215 173.367,348.209 177.910 L 346.486 181.811 347.567 183.259 C 349.353 185.651,357.466 190.081,359.597 189.828 C 360.886 189.674,363.537 186.017,363.537 184.392 C 363.537 184.134,364.520 181.815,365.721 179.239 C 366.922 176.663,368.048 173.985,368.224 173.287 C 368.685 171.447,369.735 170.791,371.909 170.985 L 373.826 171.156 366.786 186.939 C 358.008 206.619,357.976 204.694,367.170 209.994 C 373.236 213.491,373.354 213.428,377.165 204.642 C 379.601 199.025,380.754 196.438,382.632 192.381 C 383.324 190.884,383.907 189.537,383.928 189.388 C 383.948 189.238,384.479 188.014,385.107 186.667 C 387.626 181.265,389.116 177.916,389.116 177.657 C 389.116 177.507,389.989 175.493,391.057 173.182 C 392.124 170.871,393.256 168.367,393.572 167.619 C 393.888 166.871,394.481 165.613,394.890 164.824 C 401.562 151.962,401.193 151.020,389.471 151.020 L 381.288 151.020 381.436 142.772 C 381.611 132.956,382.729 133.902,371.156 134.074 L 362.721 134.198 362.372 137.439 C 362.180 139.222,361.993 142.517,361.956 144.762 C 361.872 149.967,361.569 151.023,359.954 151.759 C 359.231 152.088,358.639 152.699,358.639 153.116 C 358.639 153.533,358.020 155.191,357.262 156.801 C 356.504 158.411,356.010 159.092,356.163 158.314 C 356.383 157.198,356.162 156.772,355.113 156.295 C 352.149 154.944,351.837 151.989,351.837 125.306 L 351.837 101.224 349.932 101.183 C 348.884 101.160,347.660 101.099,347.211 101.047 C 346.762 100.995,343.211 101.075,339.320 101.224 M207.695 103.046 C 207.204 104.080,206.803 105.115,206.803 105.346 C 206.803 105.576,206.470 106.151,206.063 106.624 C 205.492 107.287,205.420 108.445,205.747 111.699 C 206.858 122.767,211.239 128.640,223.099 134.967 C 230.669 139.005,233.226 141.308,234.320 145.072 C 235.882 150.445,235.559 150.970,230.476 151.320 C 228.082 151.484,225.759 151.729,225.314 151.864 C 224.675 152.058,224.407 151.245,224.034 147.975 L 223.562 143.842 214.230 143.950 L 204.898 144.059 204.733 148.084 C 204.188 161.328,209.581 170.292,219.737 173.027 C 222.386 173.740,222.316 173.370,221.218 180.952 C 219.828 190.543,220.083 190.866,228.844 190.643 C 236.667 190.443,236.909 190.560,234.106 193.173 C 232.858 194.337,231.837 195.431,231.837 195.605 C 231.837 195.779,230.857 196.806,229.660 197.888 C 226.977 200.311,226.920 201.508,229.319 204.996 C 230.329 206.464,231.704 208.757,232.376 210.091 C 235.878 217.051,236.312 216.840,249.250 201.905 C 251.454 199.361,254.744 195.676,256.561 193.718 C 271.328 177.798,272.081 176.638,269.920 173.125 C 269.028 171.677,268.299 170.213,268.299 169.872 C 268.299 169.531,268.093 169.252,267.842 169.252 C 267.590 169.252,266.731 168.053,265.934 166.588 C 263.885 162.823,260.615 162.278,258.603 165.365 C 258.099 166.138,256.707 167.769,255.510 168.989 C 251.313 173.267,245.167 180.274,244.823 181.172 C 244.158 182.907,242.472 183.903,242.891 182.313 C 244.510 176.166,243.919 171.907,241.361 171.278 C 240.456 171.056,240.501 170.999,241.633 170.939 C 244.611 170.783,245.025 169.396,246.842 153.469 C 247.030 151.823,247.235 149.741,247.298 148.844 C 247.420 147.089,248.669 144.387,248.681 145.850 C 248.685 146.299,248.330 148.993,247.891 151.837 C 247.140 156.711,247.152 157.085,248.096 158.367 L 249.096 159.728 262.525 159.873 C 279.243 160.055,277.979 160.653,278.925 152.109 C 279.058 150.912,279.322 148.671,279.511 147.129 C 280.058 142.680,279.523 142.498,266.344 142.666 L 255.575 142.802 255.389 140.925 C 254.450 131.492,249.151 122.483,242.404 118.849 C 241.381 118.298,240.544 117.659,240.544 117.427 C 240.544 117.196,240.159 117.007,239.689 117.007 C 238.914 117.007,234.128 114.506,233.469 113.757 C 233.320 113.586,232.578 113.176,231.822 112.845 C 227.978 111.162,224.799 106.718,224.774 102.993 C 224.764 101.509,224.558 101.224,223.500 101.224 C 222.384 101.224,219.819 103.401,219.898 104.281 C 219.971 105.094,217.238 106.000,216.569 105.384 C 216.052 104.907,215.995 104.939,216.327 105.521 C 216.627 106.046,216.192 105.963,214.910 105.248 C 212.088 103.675,210.612 102.494,210.994 102.113 C 211.183 101.924,211.072 101.769,210.747 101.769 C 210.423 101.769,209.804 101.633,209.372 101.467 C 208.857 101.270,208.280 101.813,207.695 103.046 M258.059 146.001 C 258.282 147.568,259.711 147.559,260.401 145.986 C 261.173 144.228,261.660 144.476,261.660 146.629 C 261.660 147.728,261.346 148.617,260.898 148.789 C 260.059 149.111,259.858 150.552,260.613 150.839 C 261.385 151.133,260.639 154.558,259.802 154.558 C 259.387 154.558,259.047 154.986,259.046 155.510 C 259.046 156.320,258.478 156.472,255.250 156.525 C 253.163 156.559,251.579 156.388,251.729 156.144 C 251.880 155.900,251.507 155.435,250.900 155.110 C 249.608 154.419,249.485 152.590,250.425 148.040 L 251.054 144.994 254.471 144.892 C 257.623 144.799,257.901 144.885,258.059 146.001 M267.474 145.321 C 267.283 145.629,267.690 146.336,268.376 146.892 C 269.446 147.758,269.520 148.028,268.895 148.781 C 267.792 150.111,266.759 149.837,266.567 148.163 C 266.445 147.104,266.045 146.617,265.200 146.497 C 263.411 146.242,264.275 144.762,266.213 144.762 C 267.174 144.762,267.681 144.986,267.474 145.321 M272.553 146.567 C 272.647 147.363,273.221 148.364,273.829 148.789 C 275.300 149.820,274.754 152.126,273.232 151.311 C 271.442 150.353,270.867 152.987,272.367 155.277 C 273.106 156.404,273.084 156.501,272.095 156.501 C 271.341 156.501,271.020 156.133,271.020 155.268 C 271.020 154.400,270.610 153.931,269.636 153.687 C 267.918 153.256,268.140 152.432,270.357 151.020 C 271.987 149.983,272.840 147.483,271.565 147.483 C 271.265 147.483,271.020 146.850,271.020 146.077 C 271.020 144.218,272.324 144.634,272.553 146.567 M255.347 147.048 C 254.468 147.927,254.523 148.934,255.470 149.297 C 256.466 149.679,257.633 148.292,257.221 147.218 C 256.840 146.225,256.225 146.170,255.347 147.048 M265.343 151.121 C 265.039 151.913,263.401 152.115,263.401 151.361 C 263.401 151.099,263.556 150.113,263.744 149.170 L 264.087 147.455 264.853 148.930 C 265.273 149.741,265.494 150.727,265.343 151.121 M250.884 149.932 C 250.884 150.385,251.368 150.748,251.973 150.748 C 253.270 150.748,253.416 149.913,252.200 149.446 C 250.984 148.979,250.884 149.016,250.884 149.932 M256.711 150.545 C 256.215 151.041,257.005 152.971,257.620 152.766 C 258.555 152.455,258.657 150.924,257.767 150.582 C 257.333 150.415,256.857 150.399,256.711 150.545 M88.435 151.574 C 89.034 151.686,90.136 151.938,90.884 152.134 C 91.633 152.330,93.334 152.598,94.664 152.729 C 95.995 152.861,97.359 153.197,97.694 153.475 C 98.029 153.753,99.634 154.100,101.261 154.246 C 105.970 154.667,109.041 155.185,110.079 155.733 C 110.609 156.012,111.313 156.074,111.644 155.869 C 112.354 155.431,112.093 157.448,110.758 162.721 C 110.265 164.667,109.684 167.116,109.466 168.163 C 109.158 169.649,108.836 170.031,108.005 169.900 C 107.418 169.807,106.567 169.673,106.113 169.602 C 105.659 169.531,104.967 169.275,104.577 169.033 C 104.186 168.792,102.599 168.515,101.049 168.418 C 97.992 168.227,95.782 167.694,95.782 167.147 C 95.782 166.958,94.639 166.803,93.243 166.803 C 91.695 166.803,90.614 166.537,90.476 166.122 C 90.222 165.359,88.707 165.180,88.707 165.914 C 88.707 166.173,87.227 166.043,85.417 165.625 C 83.608 165.207,81.910 164.999,81.645 165.162 C 80.009 166.173,81.491 156.588,83.189 155.176 C 83.727 154.728,83.850 154.344,83.498 154.210 C 81.710 153.528,83.407 150.629,85.377 151.000 C 86.460 151.204,87.837 151.462,88.435 151.574 M252.517 153.507 C 252.517 154.363,252.810 154.592,253.736 154.460 C 255.545 154.202,255.704 152.381,253.917 152.381 C 252.864 152.381,252.517 152.660,252.517 153.507 M266.957 153.342 C 267.450 153.692,267.765 156.735,267.308 156.735 C 266.700 156.735,265.578 154.996,265.578 154.052 C 265.578 152.879,266.000 152.661,266.957 153.342 M370.490 153.666 C 370.857 153.893,371.453 153.894,371.816 153.670 C 373.308 152.748,395.181 153.023,394.818 153.960 C 394.633 154.438,394.349 155.488,394.187 156.292 C 394.024 157.096,393.552 157.884,393.136 158.043 C 392.721 158.203,392.381 158.837,392.381 159.452 C 392.381 160.145,391.863 160.768,391.020 161.088 C 389.536 161.653,389.174 162.721,390.467 162.721 C 391.162 162.721,391.148 162.987,390.367 164.626 C 389.821 165.769,389.064 166.531,388.471 166.531 C 387.453 166.531,387.101 167.863,387.976 168.404 C 388.737 168.874,388.066 170.658,386.615 172.021 C 385.895 172.697,385.306 173.550,385.306 173.917 C 385.306 174.321,384.613 174.551,383.537 174.502 C 381.370 174.404,380.874 176.472,382.993 176.773 C 383.667 176.868,384.218 177.174,384.218 177.453 C 384.218 178.268,381.494 178.034,380.603 177.143 C 379.506 176.046,378.414 176.112,378.106 177.293 C 377.914 178.027,377.226 178.287,375.244 178.373 C 372.757 178.481,372.677 178.441,373.529 177.500 C 374.020 176.957,374.424 176.042,374.427 175.467 C 374.430 174.892,375.050 173.095,375.805 171.473 C 377.549 167.727,377.317 167.542,371.108 167.734 L 365.986 167.891 363.968 171.973 C 362.858 174.218,361.940 176.365,361.927 176.745 C 361.912 177.212,361.454 177.323,360.511 177.086 C 359.389 176.804,359.058 176.962,358.815 177.892 C 358.314 179.805,352.294 179.606,351.551 177.652 C 350.847 175.800,350.811 175.924,352.496 174.363 C 353.509 173.424,353.771 172.872,353.332 172.600 C 352.597 172.146,359.789 154.715,361.144 153.668 C 362.018 152.991,369.396 152.990,370.490 153.666 M223.923 160.551 C 223.061 167.173,223.178 169.698,224.381 170.441 C 225.138 170.909,224.831 171.263,223.452 171.513 C 222.090 171.759,221.436 169.470,222.075 166.687 C 222.335 165.554,222.711 162.912,222.910 160.816 C 223.338 156.326,223.345 156.285,223.892 154.653 C 224.759 152.071,224.769 154.046,223.923 160.551 M233.581 154.119 C 232.894 154.807,233.328 156.190,234.231 156.190 C 234.586 156.190,235.111 156.986,235.398 157.958 C 236.014 160.049,237.564 160.586,238.101 158.894 C 238.369 158.049,238.156 157.505,237.331 156.928 C 236.400 156.276,235.645 153.469,236.400 153.469 C 237.354 153.469,239.171 155.004,239.035 155.696 C 238.793 156.927,240.473 158.274,241.062 157.322 C 241.609 156.437,242.031 157.202,241.789 158.639 C 241.688 159.238,241.462 160.830,241.286 162.177 C 241.110 163.524,240.721 164.929,240.422 165.299 C 240.123 165.670,239.997 166.282,240.142 166.660 C 240.341 167.178,239.294 167.351,235.872 167.365 C 231.556 167.382,231.380 167.336,232.216 166.412 C 232.699 165.879,232.995 165.422,232.873 165.397 C 229.740 164.761,229.523 164.822,229.876 166.231 C 230.262 167.766,230.078 167.881,228.548 167.062 C 227.810 166.667,227.196 166.701,226.432 167.178 C 224.911 168.128,224.228 167.132,225.714 166.133 C 227.072 165.220,227.315 164.070,226.238 163.657 C 225.770 163.478,225.610 162.635,225.754 161.120 C 225.958 158.979,226.025 158.901,226.945 159.733 C 228.102 160.781,228.824 160.021,228.285 158.323 C 228.071 157.649,227.622 157.318,227.162 157.495 C 226.597 157.711,226.395 157.315,226.395 155.992 C 226.395 153.674,226.248 153.758,230.502 153.645 C 233.051 153.577,233.980 153.720,233.581 154.119 M242.177 154.558 C 242.177 155.156,242.092 155.646,241.989 155.646 C 241.886 155.646,241.358 155.156,240.816 154.558 C 239.860 153.501,239.866 153.469,241.004 153.469 C 241.814 153.469,242.177 153.806,242.177 154.558 M366.803 155.070 C 366.803 155.686,367.048 156.190,367.347 156.190 C 367.646 156.190,367.891 155.838,367.891 155.406 C 367.891 154.975,367.646 154.471,367.347 154.286 C 367.048 154.101,366.803 154.454,366.803 155.070 M376.054 154.875 C 376.054 155.836,377.226 155.669,377.562 154.660 C 377.681 154.304,377.390 154.014,376.916 154.014 C 376.442 154.014,376.054 154.401,376.054 154.875 M97.959 155.918 C 97.959 156.367,98.204 156.735,98.503 156.735 C 98.803 156.735,99.048 156.367,99.048 155.918 C 99.048 155.469,98.803 155.102,98.503 155.102 C 98.204 155.102,97.959 155.469,97.959 155.918 M229.836 155.973 C 229.491 156.871,230.600 157.937,231.565 157.636 C 231.864 157.542,232.187 156.934,232.283 156.284 C 232.494 154.848,230.371 154.579,229.836 155.973 M371.701 156.735 C 371.701 157.034,372.068 157.279,372.517 157.279 C 372.966 157.279,373.333 157.034,373.333 156.735 C 373.333 156.435,372.966 156.190,372.517 156.190 C 372.068 156.190,371.701 156.435,371.701 156.735 M93.741 157.959 C 94.084 158.989,95.782 159.135,95.782 158.135 C 95.782 157.630,95.317 157.279,94.649 157.279 C 93.984 157.279,93.608 157.560,93.741 157.959 M367.891 158.639 C 367.891 159.093,368.375 159.456,368.980 159.456 C 369.584 159.456,370.068 159.093,370.068 158.639 C 370.068 158.186,369.584 157.823,368.980 157.823 C 368.375 157.823,367.891 158.186,367.891 158.639 M99.780 159.207 C 99.602 159.669,99.594 160.183,99.761 160.350 C 100.237 160.827,101.224 160.018,101.224 159.152 C 101.224 158.107,100.186 158.147,99.780 159.207 M231.655 159.274 C 230.752 160.177,231.332 161.633,232.595 161.633 C 233.888 161.633,234.841 160.355,234.255 159.407 C 233.900 158.831,232.186 158.744,231.655 159.274 M90.340 160.000 C 90.340 160.299,90.707 160.544,91.156 160.544 C 91.605 160.544,91.973 160.299,91.973 160.000 C 91.973 159.701,91.605 159.456,91.156 159.456 C 90.707 159.456,90.340 159.701,90.340 160.000 M383.758 160.238 C 383.861 160.737,384.190 161.133,384.490 161.117 C 385.298 161.075,385.149 159.857,384.302 159.575 C 383.844 159.422,383.640 159.671,383.758 160.238 M355.259 161.497 C 354.373 163.583,353.542 164.429,354.268 162.507 C 354.949 160.702,355.341 160.000,355.667 160.000 C 355.792 160.000,355.609 160.673,355.259 161.497 M364.626 160.784 C 364.626 161.760,365.525 162.358,366.285 161.888 C 366.675 161.647,366.654 161.293,366.218 160.768 C 365.396 159.777,364.626 159.785,364.626 160.784 M95.970 161.384 C 95.793 161.846,95.790 162.366,95.964 162.540 C 96.513 163.089,97.959 162.247,97.959 161.378 C 97.959 160.291,96.387 160.296,95.970 161.384 M238.011 161.384 C 237.600 162.454,238.086 162.945,239.151 162.537 C 239.629 162.353,239.845 161.863,239.660 161.381 C 239.248 160.306,238.424 160.307,238.011 161.384 M228.066 161.858 C 227.163 162.946,227.778 163.810,229.458 163.810 C 230.562 163.810,230.791 163.576,230.650 162.591 C 230.442 161.129,229.008 160.723,228.066 161.858 M247.233 162.349 C 247.419 162.834,247.333 163.378,247.042 163.558 C 246.751 163.738,246.644 164.097,246.804 164.356 C 246.965 164.616,246.872 165.824,246.599 167.040 C 245.998 169.714,246.360 169.799,248.482 167.483 C 251.853 163.803,252.293 163.176,251.223 163.587 C 250.617 163.820,249.639 163.496,248.578 162.712 C 247.315 161.777,246.979 161.687,247.233 162.349 M370.975 161.995 C 370.349 162.622,370.579 163.265,371.429 163.265 C 371.878 163.265,372.245 162.898,372.245 162.449 C 372.245 161.599,371.601 161.369,370.975 161.995 M379.615 162.139 C 379.443 162.418,379.551 162.800,379.855 162.988 C 380.505 163.389,381.497 162.880,381.497 162.145 C 381.497 161.483,380.024 161.478,379.615 162.139 M234.014 163.237 C 234.014 164.394,235.378 165.348,236.059 164.667 C 236.504 164.221,235.540 162.595,234.655 162.300 C 234.297 162.181,234.014 162.595,234.014 163.237 M361.361 163.265 C 361.361 163.864,361.605 164.354,361.905 164.354 C 362.204 164.354,362.449 163.864,362.449 163.265 C 362.449 162.667,362.204 162.177,361.905 162.177 C 361.605 162.177,361.361 162.667,361.361 163.265 M92.705 163.561 C 92.528 164.023,92.519 164.537,92.686 164.704 C 93.162 165.180,94.150 164.372,94.150 163.505 C 94.150 162.461,93.112 162.501,92.705 163.561 M386.128 163.256 C 385.727 163.906,386.236 164.898,386.971 164.898 C 387.633 164.898,387.637 163.425,386.976 163.016 C 386.698 162.844,386.316 162.952,386.128 163.256 M145.970 164.565 C 146.254 165.004,146.653 164.989,147.425 164.511 C 148.128 164.075,151.072 163.855,156.102 163.862 L 163.715 163.873 163.280 165.391 C 163.041 166.226,162.532 169.579,162.150 172.842 C 161.666 176.974,161.163 179.106,160.494 179.864 C 159.680 180.786,159.644 181.102,160.254 181.930 C 161.332 183.395,160.684 184.870,158.795 185.248 C 156.051 185.797,154.558 185.637,154.558 184.794 C 154.558 184.363,154.335 183.872,154.063 183.704 C 153.290 183.226,151.837 183.976,151.837 184.852 C 151.837 185.287,151.592 185.491,151.293 185.306 C 150.450 184.786,150.650 182.777,151.614 182.072 C 152.398 181.499,152.382 181.266,151.441 179.582 L 150.404 177.725 141.324 177.753 C 133.409 177.778,129.674 177.312,133.469 176.773 C 134.920 176.567,135.148 174.929,133.709 175.047 C 132.665 175.133,132.809 170.771,133.951 167.717 C 134.211 167.023,134.274 165.860,134.092 165.132 C 133.726 163.674,136.212 163.081,136.784 164.490 C 136.993 165.005,137.171 165.015,137.517 164.530 C 138.380 163.320,145.182 163.348,145.970 164.565 M366.585 164.137 C 366.141 165.293,366.506 165.673,367.641 165.237 C 368.128 165.050,368.429 164.607,368.311 164.251 C 367.963 163.210,366.966 163.143,366.585 164.137 M357.007 165.170 C 357.007 165.731,357.363 165.998,357.959 165.883 C 359.106 165.662,359.034 164.696,357.852 164.450 C 357.359 164.347,357.007 164.647,357.007 165.170 M362.812 165.805 C 362.063 166.554,362.489 167.619,363.537 167.619 C 364.263 167.619,364.626 167.256,364.626 166.531 C 364.626 165.482,363.561 165.056,362.812 165.805 M381.621 166.088 C 381.958 167.098,383.129 167.265,383.129 166.304 C 383.129 165.830,382.741 165.442,382.268 165.442 C 381.794 165.442,381.503 165.733,381.621 166.088 M103.946 167.043 C 103.946 167.659,104.190 168.163,104.490 168.163 C 104.789 168.163,105.034 167.810,105.034 167.379 C 105.034 166.948,104.789 166.443,104.490 166.259 C 104.190 166.074,103.946 166.426,103.946 167.043 M261.532 167.580 C 260.462 168.762,260.465 169.200,261.550 170.399 C 262.556 171.511,262.152 172.517,260.699 172.517 C 259.982 172.517,259.771 172.223,259.962 171.492 C 260.130 170.848,259.800 170.166,259.071 169.656 L 257.912 168.844 259.614 167.412 C 261.453 165.865,262.964 165.997,261.532 167.580 M138.594 167.438 C 137.968 168.064,138.198 168.707,139.048 168.707 C 139.497 168.707,139.864 168.340,139.864 167.891 C 139.864 167.041,139.220 166.811,138.594 167.438 M378.579 167.452 C 377.966 168.065,378.206 168.707,379.048 168.707 C 379.497 168.707,379.864 168.477,379.864 168.195 C 379.864 167.509,379.014 167.018,378.579 167.452 M359.048 167.994 C 357.786 168.324,357.846 168.834,359.248 169.710 C 360.583 170.544,361.698 169.829,361.178 168.472 C 360.842 167.598,360.692 167.564,359.048 167.994 M384.592 168.515 C 383.791 169.315,384.212 170.965,385.170 170.781 C 385.694 170.680,386.122 170.131,386.122 169.562 C 386.122 168.479,385.235 167.872,384.592 168.515 M134.694 169.252 C 134.238 169.989,134.853 170.884,135.814 170.884 C 136.246 170.884,136.599 170.395,136.599 169.796 C 136.599 168.669,135.286 168.294,134.694 169.252 M82.344 171.126 C 84.795 171.412,87.075 172.074,87.075 172.499 C 87.075 172.740,88.412 172.849,90.046 172.739 C 92.496 172.576,92.964 172.682,92.709 173.345 C 92.332 174.328,93.657 174.425,94.599 173.483 C 95.125 172.957,95.497 172.961,96.362 173.501 C 96.966 173.878,97.699 174.038,97.992 173.857 C 98.285 173.676,99.438 173.831,100.555 174.200 C 101.671 174.570,103.320 174.965,104.218 175.079 C 108.009 175.560,108.029 175.570,107.956 176.917 C 107.821 179.405,107.753 179.592,106.980 179.592 C 106.407 179.592,106.230 180.253,106.300 182.131 C 106.360 183.751,106.148 184.753,105.714 184.898 C 105.340 185.023,105.034 185.594,105.034 186.168 C 105.034 188.216,84.462 187.144,81.815 184.957 C 81.467 184.670,80.610 184.485,79.911 184.547 C 77.499 184.760,76.735 184.497,76.735 183.452 C 76.735 182.685,77.016 182.488,77.817 182.698 C 79.108 183.036,79.925 181.476,78.961 180.512 C 78.472 180.023,78.202 180.063,77.809 180.685 C 77.082 181.835,77.153 180.952,78.139 176.599 C 79.247 171.706,79.865 170.193,80.578 170.633 C 80.893 170.828,81.688 171.050,82.344 171.126 M159.456 170.884 C 159.456 171.184,159.946 171.429,160.544 171.429 C 161.143 171.429,161.633 171.184,161.633 170.884 C 161.633 170.585,161.143 170.340,160.544 170.340 C 159.946 170.340,159.456 170.585,159.456 170.884 M311.954 172.054 C 312.570 173.902,311.702 175.782,310.233 175.782 C 309.419 175.782,308.589 175.946,308.389 176.146 C 307.903 176.632,309.632 178.503,310.565 178.503 C 311.166 178.503,311.176 178.705,310.622 179.592 C 309.754 180.981,304.532 181.196,304.021 179.864 C 303.849 179.415,303.149 179.028,302.466 179.005 C 301.783 178.981,301.531 178.838,301.905 178.687 C 302.279 178.536,302.585 177.960,302.585 177.406 C 302.585 176.712,303.050 176.345,304.082 176.227 C 305.768 176.033,306.418 174.129,305.270 172.746 C 304.405 171.703,304.683 171.484,307.544 170.960 C 309.977 170.514,311.573 170.910,311.954 172.054 M354.830 170.776 C 354.830 171.339,356.008 172.517,356.571 172.517 C 356.811 172.517,357.007 172.027,357.007 171.429 C 357.007 170.703,356.644 170.340,355.918 170.340 C 355.320 170.340,354.830 170.536,354.830 170.776 M140.408 171.429 C 140.408 171.728,140.761 171.973,141.192 171.973 C 141.624 171.973,142.128 171.728,142.313 171.429 C 142.498 171.129,142.145 170.884,141.529 170.884 C 140.912 170.884,140.408 171.129,140.408 171.429 M258.826 174.738 C 258.796 175.489,259.221 176.231,259.876 176.571 C 261.159 177.238,261.063 179.311,259.772 178.815 C 259.325 178.644,258.768 178.503,258.534 178.503 C 258.301 178.503,258.218 177.937,258.351 177.246 C 258.681 175.516,257.311 174.420,255.817 175.219 C 255.199 175.550,254.694 176.152,254.694 176.557 C 254.694 176.963,254.388 177.283,254.014 177.269 C 251.823 177.187,251.429 177.459,251.429 179.048 C 251.429 180.339,251.665 180.680,252.562 180.680 C 254.047 180.680,253.625 181.985,252.066 182.215 C 251.186 182.344,250.884 182.108,250.884 181.289 C 250.884 180.685,250.523 179.988,250.082 179.741 C 249.079 179.180,252.817 174.694,254.289 174.694 C 254.852 174.694,255.358 174.106,255.575 173.197 C 255.772 172.374,256.043 171.505,256.178 171.266 C 256.620 170.483,258.877 173.444,258.826 174.738 M292.417 172.028 C 292.594 172.704,292.968 173.015,293.334 172.789 C 293.674 172.579,293.820 172.064,293.660 171.646 C 293.273 170.639,295.696 170.613,296.527 171.615 C 297.297 172.542,296.782 173.061,295.096 173.061 C 294.233 173.061,293.677 173.438,293.491 174.150 C 293.334 174.748,292.868 175.238,292.454 175.238 C 292.039 175.238,291.701 175.425,291.701 175.653 C 291.701 175.882,291.166 176.310,290.511 176.606 C 288.882 177.342,288.624 178.512,290.011 178.875 C 290.641 179.040,291.156 179.513,291.156 179.927 C 291.156 181.129,289.751 180.798,289.151 179.456 C 288.536 178.078,288.845 174.150,289.570 174.150 C 289.829 174.150,289.894 173.415,289.714 172.517 C 289.304 170.463,291.886 169.996,292.417 172.028 M380.408 171.973 C 380.408 172.577,380.771 173.061,381.224 173.061 C 381.678 173.061,382.041 172.577,382.041 171.973 C 382.041 171.368,381.678 170.884,381.224 170.884 C 380.771 170.884,380.408 171.368,380.408 171.973 M307.302 171.791 C 306.579 172.514,306.961 173.605,307.937 173.605 C 309.220 173.605,309.659 173.148,309.292 172.192 C 308.984 171.390,307.918 171.175,307.302 171.791 M360.925 172.082 C 359.912 173.095,360.151 173.698,361.491 173.507 C 362.161 173.412,362.792 172.905,362.891 172.381 C 363.100 171.289,361.900 171.107,360.925 172.082 M321.104 173.858 C 320.429 174.672,319.456 174.528,319.456 173.613 C 319.456 173.152,321.151 172.562,321.574 172.876 C 321.692 172.963,321.480 173.405,321.104 173.858 M327.222 174.678 C 327.511 176.005,326.993 177.619,326.523 176.859 C 326.282 176.469,325.648 176.361,324.934 176.587 C 323.279 177.112,323.587 179.337,325.306 179.277 C 325.980 179.253,326.531 179.436,326.531 179.685 C 326.531 180.636,323.514 180.114,322.847 179.048 C 321.992 177.678,320.999 177.661,320.036 178.998 C 319.624 179.570,318.951 179.908,318.541 179.751 C 317.621 179.398,318.624 177.959,319.790 177.959 C 320.200 177.959,320.841 177.469,321.215 176.871 C 321.589 176.272,322.387 175.779,322.988 175.774 C 324.776 175.760,325.600 174.959,325.181 173.639 C 324.835 172.550,324.898 172.508,325.922 173.147 C 326.538 173.532,327.123 174.221,327.222 174.678 M234.558 174.249 C 234.558 174.875,234.957 175.238,235.646 175.238 C 236.372 175.238,236.735 174.875,236.735 174.150 C 236.735 173.317,237.098 173.061,238.278 173.061 C 240.044 173.061,240.210 176.539,238.600 179.812 C 238.173 180.681,237.823 181.721,237.823 182.124 C 237.823 182.657,236.932 182.857,234.558 182.857 C 231.459 182.857,231.293 182.790,231.293 181.529 C 231.293 180.798,231.070 180.063,230.797 179.894 C 229.837 179.301,228.571 180.269,228.571 181.598 C 228.571 182.810,228.409 182.908,226.939 182.585 C 225.912 182.359,225.306 182.444,225.306 182.814 C 225.306 183.137,224.816 183.401,224.218 183.401 C 223.420 183.401,223.129 183.039,223.129 182.041 C 223.129 181.057,223.422 180.680,224.186 180.680 C 224.767 180.680,225.363 180.485,225.510 180.246 C 225.940 179.550,224.942 178.328,224.279 178.738 C 223.916 178.962,223.689 178.717,223.712 178.127 C 223.777 176.446,224.445 175.510,225.578 175.510 C 226.382 175.510,226.633 175.190,226.537 174.288 C 226.413 173.110,226.559 173.069,230.483 173.162 C 234.023 173.247,234.558 173.389,234.558 174.249 M376.054 173.878 C 376.054 174.327,376.422 174.694,376.871 174.694 C 377.320 174.694,377.687 174.327,377.687 173.878 C 377.687 173.429,377.320 173.061,376.871 173.061 C 376.422 173.061,376.054 173.429,376.054 173.878 M266.122 174.150 C 266.122 174.449,265.747 174.694,265.289 174.694 C 264.174 174.694,263.669 176.153,264.455 177.101 C 264.888 177.622,264.907 177.973,264.516 178.215 C 264.202 178.409,263.946 178.245,263.946 177.850 C 263.946 177.455,263.456 176.827,262.857 176.453 C 261.374 175.527,261.488 174.694,263.097 174.694 C 263.828 174.694,264.577 174.449,264.762 174.150 C 264.947 173.850,265.329 173.605,265.610 173.605 C 265.892 173.605,266.122 173.850,266.122 174.150 M357.105 174.787 C 357.301 176.120,358.031 176.522,359.066 175.866 C 360.053 175.241,359.281 173.605,357.999 173.605 C 357.212 173.605,356.977 173.917,357.105 174.787 M89.252 175.238 C 89.252 175.837,89.497 176.327,89.796 176.327 C 90.095 176.327,90.340 175.837,90.340 175.238 C 90.340 174.639,90.095 174.150,89.796 174.150 C 89.497 174.150,89.252 174.639,89.252 175.238 M142.585 175.238 C 142.585 176.299,143.162 176.656,143.817 176.001 C 144.253 175.565,143.683 174.150,143.071 174.150 C 142.804 174.150,142.585 174.639,142.585 175.238 M230.968 174.905 C 230.614 175.830,231.090 176.871,231.869 176.871 C 232.555 176.871,232.526 174.847,231.833 174.419 C 231.531 174.233,231.142 174.452,230.968 174.905 M79.527 175.424 C 78.861 176.227,79.233 176.871,80.363 176.871 C 80.762 176.871,81.088 176.381,81.088 175.782 C 81.088 174.527,80.403 174.369,79.527 175.424 M183.465 175.187 C 182.970 175.501,182.365 178.340,181.698 183.478 C 180.273 194.465,179.803 193.966,191.770 194.163 C 202.695 194.343,202.626 194.370,203.410 189.554 C 204.991 179.846,205.203 177.573,204.660 176.144 L 204.109 174.694 194.163 174.702 C 188.693 174.707,183.879 174.925,183.465 175.187 M298.639 176.644 C 298.121 177.163,297.081 176.323,297.468 175.697 C 297.697 175.326,298.002 175.335,298.392 175.726 C 298.713 176.046,298.824 176.459,298.639 176.644 M157.642 176.145 C 156.952 176.835,157.283 177.415,158.367 177.415 C 158.972 177.415,159.456 177.052,159.456 176.599 C 159.456 175.770,158.305 175.482,157.642 176.145 M352.653 176.490 C 352.653 177.489,353.789 178.503,354.907 178.503 C 356.088 178.503,356.568 177.778,356.134 176.648 C 355.728 175.591,352.653 175.451,352.653 176.490 M85.081 177.179 C 84.627 178.361,85.779 179.473,86.603 178.649 C 87.299 177.952,86.868 176.327,85.986 176.327 C 85.668 176.327,85.261 176.710,85.081 177.179 M192.551 177.561 C 192.793 178.814,194.829 178.805,194.832 177.551 C 194.833 176.762,195.348 176.595,197.825 176.577 C 199.470 176.565,200.816 176.748,200.816 176.985 C 200.816 177.221,200.187 177.415,199.418 177.415 C 198.279 177.415,198.052 177.642,198.193 178.639 C 198.310 179.457,198.684 179.811,199.320 179.704 C 200.360 179.529,200.426 179.776,199.959 182.109 C 199.537 184.219,193.555 184.829,193.029 182.815 C 192.646 181.352,190.372 181.584,189.954 183.129 C 189.714 184.018,189.124 184.247,186.731 184.377 L 183.803 184.536 184.118 181.928 C 184.818 176.138,184.491 176.497,188.990 176.566 C 191.737 176.609,192.404 176.795,192.551 177.561 M236.825 177.490 C 236.925 178.197,237.252 178.714,237.551 178.639 C 238.354 178.439,238.213 176.728,237.369 176.447 C 236.871 176.281,236.700 176.609,236.825 177.490 M305.945 178.189 C 306.042 178.979,306.367 179.618,306.667 179.609 C 307.481 179.583,307.323 177.271,306.489 176.993 C 305.984 176.825,305.820 177.185,305.945 178.189 M154.376 178.322 C 153.686 179.012,154.018 179.592,155.102 179.592 C 155.707 179.592,156.190 179.229,156.190 178.776 C 156.190 177.947,155.039 177.659,154.376 178.322 M188.299 179.320 C 188.299 179.773,188.783 180.136,189.388 180.136 C 189.992 180.136,190.476 179.773,190.476 179.320 C 190.476 178.866,189.992 178.503,189.388 178.503 C 188.783 178.503,188.299 178.866,188.299 179.320 M232.744 178.866 C 231.983 179.627,232.400 181.224,233.361 181.224 C 234.507 181.224,235.646 180.220,235.646 179.211 C 235.646 178.484,233.393 178.217,232.744 178.866 M257.028 179.592 C 256.844 180.296,256.286 180.680,255.447 180.680 C 254.020 180.680,253.800 180.159,254.803 179.156 C 255.899 178.061,257.354 178.345,257.028 179.592 M81.088 179.592 C 81.088 179.891,81.456 180.136,81.905 180.136 C 82.354 180.136,82.721 179.891,82.721 179.592 C 82.721 179.293,82.354 179.048,81.905 179.048 C 81.456 179.048,81.088 179.293,81.088 179.592 M185.926 179.969 C 185.253 180.642,185.587 182.313,186.395 182.313 C 186.844 182.313,187.211 181.838,187.211 181.257 C 187.211 180.121,186.494 179.402,185.926 179.969 M194.123 179.936 C 193.166 180.893,193.774 182.313,195.140 182.313 C 196.277 182.313,196.506 182.085,196.364 181.094 C 196.192 179.888,194.860 179.199,194.123 179.936 M102.857 182.585 C 102.857 183.034,103.224 183.401,103.673 183.401 C 104.122 183.401,104.490 183.034,104.490 182.585 C 104.490 182.136,104.122 181.769,103.673 181.769 C 103.224 181.769,102.857 182.136,102.857 182.585 M156.190 182.585 C 156.190 183.034,156.558 183.401,157.007 183.401 C 157.456 183.401,157.823 183.034,157.823 182.585 C 157.823 182.136,157.456 181.769,157.007 181.769 C 156.558 181.769,156.190 182.136,156.190 182.585 M83.508 183.449 C 82.947 184.356,84.209 185.397,84.959 184.646 C 85.587 184.018,85.194 182.857,84.354 182.857 C 84.090 182.857,83.709 183.123,83.508 183.449 M89.600 184.323 C 88.949 184.974,89.248 186.122,90.068 186.122 C 90.517 186.122,90.884 185.770,90.884 185.338 C 90.884 184.429,90.108 183.815,89.600 184.323 M100.408 192.123 C 101.135 192.445,100.683 192.497,99.048 192.281 C 97.701 192.103,96.497 191.869,96.372 191.761 C 95.899 191.352,99.369 191.663,100.408 192.123 " stroke="none" fill="#000000" fill-rule="evenodd"></path></g></svg>